# xmcd
#
# Track frame offsets: 
#        150
#        12281
#        34175
#        49827
#        74330
#        91065
#        116263
#        135746
#
# Disc length: 2026 seconds
#
# Revision: 0
# Processed by: cddbd v1.5.2PL0 Copyright (c) Steve Scherf et al.
# Submitted via: ExactAudioCopy v0.99pb3
#
DISCID=6207e808
DTITLE=Dirty Pirate Hookers - Live Anywhere
DYEAR=2008
DGENRE=Blues
TTITLE0=You Upset Me
TTITLE1=I Can't Hold Out
TTITLE2=I'm Tore Down
TTITLE3=Thrill Is Gone
TTITLE4=Messin' With The Kid
TTITLE5=Shot Gun Blues
TTITLE6=Evil
TTITLE7=Hideaway
EXTD=
EXTT0=
EXTT1=
EXTT2=
EXTT3=
EXTT4=
EXTT5=
EXTT6=
EXTT7=
PLAYORDER=
